<?xml version="1.0" standalone="no"?>
<!DOCTYPE svg PUBLIC "-//W3C//DTD SVG 20010904//EN"
 "http://www.w3.org/TR/2001/REC-SVG-20010904/DTD/svg10.dtd">
<svg version="1.0" xmlns="http://www.w3.org/2000/svg"
 width="1021.000000pt" height="1021.000000pt" viewBox="0 0 1021.000000 1021.000000"
 preserveAspectRatio="xMidYMid meet">
<metadata>
Created by potrace 1.14, written by Peter Selinger 2001-2017
</metadata>
<g transform="translate(0.000000,1021.000000) scale(0.100000,-0.100000)"
fill="#000000" stroke="none">
<path d="M3747 9203 c-10 -2 -29 -15 -42 -29 -13 -13 -31 -24 -40 -24 -8 0
-15 -7 -15 -15 0 -8 -15 -43 -33 -77 -19 -35 -39 -85 -46 -113 -7 -27 -16 -66
-21 -85 -8 -32 -22 -109 -37 -210 -3 -19 -10 -41 -16 -48 -6 -7 -12 -48 -14
-90 -3 -70 -43 -231 -64 -256 -4 -5 -5 -31 -2 -57 4 -33 1 -54 -7 -64 -15 -18
-32 -93 -32 -145 -1 -52 36 -175 63 -209 13 -16 33 -32 44 -35 11 -3 29 -12
40 -21 80 -61 95 -67 151 -55 30 6 80 25 111 41 32 16 63 29 68 29 6 0 22 11
37 25 15 14 34 25 42 25 26 0 63 22 75 44 6 11 13 62 14 111 l2 90 -68 135
c-129 257 -177 318 -255 327 -20 2 -40 7 -44 11 -16 18 89 397 121 436 7 9 22
16 32 16 17 0 110 -89 118 -113 2 -7 15 -25 27 -40 13 -16 24 -33 24 -39 0 -6
26 -50 57 -97 62 -94 103 -169 103 -189 0 -7 15 -43 34 -80 19 -37 37 -78 40
-92 7 -33 75 -236 94 -280 21 -49 41 -70 69 -70 37 0 59 15 92 65 36 53 40
101 14 161 -9 22 -20 55 -24 74 -14 64 -47 149 -83 213 -20 35 -36 71 -36 79
0 8 -9 27 -21 41 -11 15 -37 59 -58 99 -162 308 -323 499 -426 504 -16 1 -39
4 -50 7 -11 3 -28 3 -38 0z"/>
<path d="M6445 8953 c-11 -3 -32 -14 -47 -24 -14 -11 -31 -19 -37 -19 -6 0
-11 -5 -11 -11 0 -14 -108 -122 -138 -138 -12 -6 -22 -20 -22 -30 0 -10 -15
-30 -32 -44 -58 -44 -78 -67 -78 -88 0 -12 -31 -51 -76 -96 -42 -41 -77 -81
-78 -87 -2 -14 -41 -67 -73 -100 -13 -13 -23 -32 -23 -42 0 -11 -16 -35 -35
-53 -20 -18 -34 -35 -31 -38 2 -2 -6 -30 -19 -62 -36 -93 -39 -124 -14 -168
12 -21 22 -39 24 -41 12 -13 216 206 321 345 20 27 55 66 77 89 35 34 149 155
225 237 9 10 28 24 42 30 14 7 29 22 35 35 10 22 39 30 50 13 3 -6 6 -55 7
-111 1 -111 -17 -166 -58 -176 -12 -3 -35 -19 -50 -36 -16 -16 -43 -36 -61
-43 -17 -7 -39 -25 -48 -39 -10 -14 -23 -26 -29 -26 -6 0 -18 -8 -26 -17 -29
-35 -99 -159 -106 -188 -4 -16 -17 -44 -30 -62 -28 -37 -31 -65 -8 -83 8 -8
22 -27 29 -44 8 -17 19 -39 25 -48 5 -10 14 -26 19 -35 4 -10 25 -21 49 -25
22 -4 51 -13 64 -21 13 -8 34 -18 48 -22 14 -4 52 -20 86 -35 65 -30 80 -30
194 6 25 8 59 14 76 14 24 0 41 10 72 44 37 40 41 49 47 119 10 103 -21 625
-43 732 -6 28 -11 75 -11 106 -1 96 -48 216 -94 241 -22 11 -165 48 -182 47
-5 -1 -19 -4 -30 -6z"/>
<path d="M5130 8632 c-8 -3 -17 -8 -20 -12 -3 -4 -20 -15 -37 -24 -18 -9 -33
-21 -33 -25 0 -5 -15 -19 -33 -30 -18 -11 -40 -32 -47 -47 -8 -14 -27 -32 -42
-40 -15 -8 -28 -21 -28 -28 0 -8 -7 -16 -15 -20 -8 -3 -15 -10 -15 -17 0 -6
-8 -23 -19 -37 -10 -15 -22 -41 -25 -58 -4 -18 -15 -39 -25 -48 -10 -9 -23
-34 -29 -56 -38 -128 -37 -114 -6 -166 53 -86 84 -85 120 4 11 28 41 77 65
109 25 32 57 78 72 103 46 79 180 234 215 249 57 26 56 99 -1 125 -41 18 -78
25 -97 18z"/>
<path d="M5505 8500 c-11 -5 -38 -9 -59 -9 -32 -1 -50 -10 -97 -51 -32 -27
-61 -50 -65 -50 -4 0 -22 -11 -41 -26 -24 -18 -33 -33 -33 -53 0 -20 -8 -34
-25 -45 -14 -9 -25 -23 -25 -32 0 -14 -41 -94 -60 -119 -4 -5 -11 -36 -14 -67
-7 -63 13 -128 48 -158 16 -13 21 -11 50 22 17 20 42 51 56 68 14 18 39 49 55
68 17 19 53 68 80 108 28 40 67 94 88 121 73 93 118 158 123 181 11 43 -30 64
-81 42z"/>
<path d="M6920 7464 c-26 -5 -108 -30 -148 -45 -13 -5 -45 -9 -72 -9 -42 0
-52 -4 -66 -25 -26 -40 -15 -140 17 -150 10 -4 63 3 116 15 253 55 326 85 331
137 3 25 -3 35 -29 54 -31 22 -97 32 -149 23z"/>
<path d="M4369 7249 c-13 -4 -37 -7 -53 -8 -15 -1 -50 -12 -78 -26 -27 -14
-55 -25 -62 -25 -16 0 -96 -94 -96 -112 0 -8 -13 -32 -28 -54 -16 -21 -29 -51
-30 -65 -1 -14 -8 -39 -17 -55 -31 -60 -12 -220 36 -297 37 -59 109 -129 154
-151 93 -44 233 -43 368 5 128 45 178 94 228 224 21 55 29 95 30 143 1 84 -9
159 -28 195 -20 40 -142 166 -178 185 -60 30 -199 54 -246 41z m172 -180 c88
-30 117 -53 147 -117 36 -78 36 -144 0 -207 -15 -27 -36 -60 -45 -71 -16 -20
-103 -64 -124 -64 -13 0 -11 28 6 59 8 16 18 70 23 122 13 124 -1 172 -68 239
-28 28 -50 52 -50 55 0 11 50 4 111 -16z"/>
<path d="M7545 7220 c-71 -34 -189 -150 -226 -220 -35 -69 -32 -168 9 -287 18
-50 32 -101 32 -112 0 -12 -14 -48 -30 -81 -61 -121 -62 -279 -3 -359 45 -60
151 -151 183 -158 35 -7 40 -31 8 -37 -13 -2 -68 -9 -123 -14 -129 -13 -128
-13 -242 -65 -34 -15 -47 -4 -93 79 -48 88 -147 193 -201 213 -19 7 -46 19
-61 27 -14 8 -35 14 -46 14 -11 0 -22 7 -26 15 -8 21 -59 19 -83 -2 -28 -25
-50 -100 -35 -115 7 -7 12 -28 12 -47 0 -48 6 -55 72 -84 32 -14 68 -37 81
-50 12 -14 38 -33 56 -44 19 -10 36 -24 39 -31 4 -13 -65 -46 -168 -82 -36
-13 -72 -29 -81 -37 -8 -7 -23 -13 -33 -13 -9 0 -19 -7 -22 -15 -4 -8 -12 -15
-19 -15 -7 0 -24 -9 -37 -20 -12 -11 -33 -28 -45 -37 -23 -18 -27 -41 -21
-128 3 -34 7 -40 28 -43 14 -1 63 14 110 34 111 47 247 94 275 94 12 0 51 11
87 24 57 20 78 23 161 18 79 -4 107 -1 168 18 83 25 159 61 178 84 10 12 32
16 90 16 166 0 239 -26 329 -116 40 -41 40 -58 1 -93 -54 -50 -167 -93 -279
-106 -30 -4 -63 -14 -72 -23 -26 -22 -22 -66 8 -102 42 -50 78 -63 147 -55
l59 6 -6 -98 c-4 -54 -7 -118 -7 -143 1 -46 -15 -110 -27 -110 -4 0 -25 7 -47
15 -66 23 -146 19 -189 -10 -20 -14 -44 -25 -52 -25 -9 0 -32 -7 -52 -16 -109
-48 -129 -57 -155 -70 -16 -8 -39 -14 -52 -14 -13 0 -35 -4 -50 -10 -14 -5
-46 -12 -70 -14 -25 -2 -67 -15 -93 -29 -42 -21 -67 -28 -177 -43 -38 -5 -92
-23 -125 -40 -14 -7 -47 -21 -75 -30 -27 -10 -54 -21 -60 -25 -5 -3 -24 -10
-42 -14 -44 -9 -74 -58 -66 -108 8 -54 22 -61 85 -47 29 6 67 16 84 21 17 5
43 9 58 9 23 0 27 -3 21 -17 -9 -21 -11 -44 -26 -261 -10 -131 -9 -166 1 -172
9 -6 10 -15 1 -41 -7 -23 -8 -70 -2 -144 10 -133 6 -274 -7 -287 -5 -5 -40
-20 -77 -33 -37 -13 -72 -31 -79 -40 -7 -10 -33 -18 -71 -22 -33 -3 -73 -12
-89 -20 -16 -8 -63 -19 -105 -24 -42 -5 -89 -12 -106 -15 -59 -10 -152 -23
-270 -37 -66 -9 -138 -21 -160 -27 -22 -7 -63 -15 -91 -19 -29 -4 -58 -12 -66
-18 -7 -7 -29 -12 -48 -12 -19 1 -84 -2 -145 -6 -60 -4 -114 -6 -120 -6 -5 1
-78 5 -162 10 -84 5 -156 12 -160 14 -5 3 -67 8 -138 12 -72 3 -143 10 -160
15 -53 17 -251 51 -281 48 -16 -1 -38 3 -49 9 -11 6 -50 14 -88 18 -40 4 -74
13 -83 22 -9 9 -38 18 -65 21 -27 2 -49 9 -49 14 0 5 -21 8 -47 6 l-48 -3 -3
65 c-2 36 1 101 7 145 7 44 16 134 20 200 5 66 21 170 35 230 24 99 38 174 52
275 6 42 -14 84 -42 88 -11 2 -31 -8 -45 -22 -29 -29 -97 -206 -111 -291 -6
-33 -18 -74 -28 -91 -9 -17 -23 -48 -29 -70 -7 -21 -15 -46 -19 -54 -3 -8 -7
-33 -8 -55 -4 -89 -14 -186 -24 -227 -11 -50 -13 -112 -3 -122 4 -3 8 -36 9
-72 2 -45 7 -71 19 -84 19 -21 17 -55 -8 -174 -19 -91 -53 -117 -151 -115 -28
0 -34 6 -58 58 -16 32 -28 74 -28 93 0 19 -5 49 -11 67 -8 22 -8 44 -1 71 11
45 2 60 -38 60 -26 -1 -81 -44 -98 -77 -5 -10 -10 -38 -11 -63 0 -25 -3 -66
-6 -92 -4 -36 -2 -49 10 -55 9 -5 22 -40 31 -82 8 -41 19 -81 24 -91 5 -9 5
-22 0 -30 -7 -11 -13 -12 -32 -2 -13 6 -36 13 -53 14 -21 2 -37 14 -57 43 -15
22 -27 47 -28 56 0 9 -6 29 -14 45 -23 45 -30 187 -14 270 15 77 9 109 -23
117 -25 7 -78 -31 -99 -70 -10 -18 -22 -38 -27 -45 -21 -26 -21 -128 -1 -169
29 -62 20 -159 -16 -159 -49 0 -81 129 -81 330 0 154 5 189 45 310 10 30 23
73 28 95 25 94 66 223 82 260 22 48 49 127 59 175 4 19 13 45 20 57 6 13 16
42 21 65 16 77 27 112 48 158 20 43 35 80 70 180 9 25 28 65 43 90 14 25 32
61 38 82 7 20 18 39 26 42 18 6 20 77 5 107 -18 32 -75 25 -120 -15 -20 -18
-44 -37 -51 -42 -24 -15 -69 -82 -69 -102 0 -10 -11 -29 -25 -42 -26 -24 -105
-173 -105 -198 0 -7 -9 -25 -20 -39 -11 -14 -20 -36 -20 -48 0 -12 -11 -32
-25 -45 -16 -15 -25 -34 -25 -53 0 -17 -8 -39 -17 -49 -9 -11 -18 -29 -18 -41
-2 -35 -15 -80 -32 -110 -10 -19 -13 -42 -9 -65 3 -24 0 -46 -9 -62 -27 -47
-28 -53 -16 -71 9 -15 8 -26 -4 -49 -8 -16 -14 -33 -13 -37 0 -4 -4 -21 -10
-36 -7 -16 -9 -33 -6 -39 6 -10 -18 -99 -40 -147 -8 -19 -8 -25 2 -28 17 -6
15 -30 -9 -92 -11 -30 -19 -66 -17 -80 1 -14 -2 -33 -7 -41 -10 -16 -7 -190 4
-205 13 -19 29 -80 36 -140 7 -62 34 -137 54 -149 6 -4 11 -17 11 -29 0 -28
82 -111 125 -127 17 -7 50 -9 78 -5 41 6 52 4 72 -15 13 -12 52 -28 90 -37
l66 -15 -6 -81 c-4 -44 -12 -92 -19 -106 -7 -14 -18 -48 -25 -74 -10 -44 -10
-52 9 -81 11 -19 20 -49 20 -68 0 -48 22 -89 70 -127 39 -31 125 -61 176 -61
14 0 39 -8 55 -17 24 -15 34 -15 61 -5 27 10 35 9 51 -5 13 -12 17 -25 12 -43
-18 -75 -25 -308 -12 -405 4 -27 9 -79 11 -114 3 -46 11 -72 27 -94 12 -17 21
-42 21 -56 -4 -69 -4 -89 2 -130 9 -54 17 -71 74 -143 45 -59 89 -94 152 -124
8 -4 18 -12 21 -17 9 -13 73 -37 124 -46 22 -4 56 -16 75 -26 29 -15 60 -19
175 -20 91 -1 159 3 195 12 30 8 96 16 145 17 50 2 102 9 117 14 18 7 38 8 60
1 59 -17 157 42 178 107 19 56 -5 221 -41 293 -24 47 -28 63 -23 101 4 25 17
59 29 75 22 31 52 105 76 185 8 26 14 103 15 184 l1 138 31 15 c22 11 34 12
44 4 7 -6 41 -35 76 -65 55 -47 70 -55 110 -58 l47 -3 1 -120 c0 -66 4 -128 8
-138 5 -11 4 -33 -1 -52 -13 -42 6 -146 37 -198 13 -23 19 -45 16 -63 -9 -45
11 -100 47 -130 17 -15 40 -40 49 -55 11 -18 42 -41 83 -60 73 -34 74 -34 520
-46 302 -8 325 -8 465 5 131 12 153 18 181 48 12 13 26 24 31 24 4 0 17 9 28
20 16 16 20 33 20 85 0 79 -24 148 -75 209 -36 45 -37 48 -30 103 4 31 15 68
26 82 39 53 62 248 55 451 -3 80 -8 156 -11 170 -5 23 1 28 57 54 35 16 76 39
93 50 16 12 73 42 125 69 69 35 110 63 149 104 l53 56 -5 81 c-4 81 -18 123
-81 246 -13 25 -26 62 -30 82 -4 20 -20 70 -37 110 -16 40 -53 141 -81 223
-63 184 -106 267 -168 325 l-48 45 -6 169 c-4 92 -8 171 -10 175 -6 9 -18 237
-20 359 -1 117 11 133 108 143 41 4 75 14 94 28 18 12 46 21 69 21 21 0 58 9
82 20 24 11 56 20 71 20 18 0 33 8 42 23 12 17 32 25 85 35 l69 13 90 -90 c50
-50 104 -95 120 -101 16 -7 81 -12 144 -12 102 -1 122 2 179 25 86 36 122 65
176 145 57 87 67 120 54 183 -11 51 -37 79 -72 79 -26 0 -135 -66 -175 -107
-37 -37 -57 -41 -71 -15 -14 27 -25 116 -17 146 7 28 26 36 26 12 0 -26 19
-28 53 -5 45 31 106 101 107 122 0 10 9 35 20 57 11 22 20 47 20 57 0 10 16
33 35 52 19 18 35 37 35 42 0 5 13 37 28 71 48 105 52 118 52 158 0 49 -14 83
-59 140 -20 24 -48 64 -63 87 -15 24 -33 43 -40 43 -6 0 -21 9 -33 20 -12 12
-40 23 -61 26 -92 12 -87 9 -81 73 7 64 15 91 27 91 4 0 31 -16 60 -35 30 -20
63 -35 79 -34 14 1 58 -2 96 -6 96 -10 138 4 207 67 62 59 72 83 84 208 8 86
30 142 92 227 50 70 102 234 102 321 0 92 -120 245 -211 271 -25 7 -119 13
-216 14 -95 1 -173 5 -173 8 0 3 -35 42 -77 86 -105 106 -141 123 -269 123
-89 0 -105 -4 -159 -30z m463 -487 c75 -52 103 -115 74 -169 -6 -11 -10 -34
-10 -50 1 -35 -16 -70 -46 -96 -17 -15 -33 -18 -84 -15 -55 4 -69 10 -119 48
-86 67 -106 139 -56 201 43 52 75 78 118 99 54 25 61 24 123 -18z m-278 -763
c0 -6 -7 -13 -15 -16 -20 -8 -48 3 -40 16 8 13 55 13 55 0z m268 -216 c12 -8
22 -26 22 -39 0 -25 -33 -55 -61 -55 -24 0 -42 27 -42 61 0 47 38 63 81 33z
m-44 -443 c9 -10 18 -37 19 -60 1 -34 -4 -46 -33 -76 -19 -19 -39 -35 -46 -35
-7 0 -13 24 -17 58 -2 32 -11 68 -18 80 -10 17 -10 23 0 36 18 22 74 20 95 -3z
m-1445 -2093 c11 -17 27 -65 35 -107 9 -42 28 -127 42 -188 30 -132 64 -325
64 -369 0 -16 -7 -39 -15 -50 -15 -19 -16 -18 -40 9 -14 15 -25 37 -25 47 0
11 -7 41 -16 66 -9 26 -20 73 -25 103 -5 31 -20 119 -34 196 -41 216 -48 271
-41 299 9 35 32 33 55 -6z m-696 -120 c23 -67 41 -182 66 -433 6 -60 16 -137
21 -170 5 -33 10 -112 10 -176 0 -129 -7 -147 -49 -126 -45 23 -60 56 -64 142
-2 45 -6 86 -10 92 -4 6 -7 51 -7 99 -1 49 -2 107 -4 129 -2 22 -6 78 -10 125
-3 47 -10 108 -15 135 -6 31 -6 54 0 60 12 12 12 102 -1 110 -14 9 -12 42 3
48 32 14 46 6 60 -35z m-1496 2 c15 -30 16 -176 2 -240 -6 -25 -14 -76 -19
-115 -5 -38 -18 -104 -30 -145 -25 -90 -37 -137 -48 -187 -12 -52 -48 -119
-67 -127 -11 -4 -24 2 -36 16 -39 46 -47 71 -39 120 6 42 14 65 51 140 5 10 9
28 9 41 0 31 38 185 52 211 6 11 15 56 20 100 5 44 13 85 18 90 6 6 10 25 10
42 0 18 5 45 10 59 13 34 49 31 67 -5z m883 -76 c9 -27 11 -133 8 -403 -5
-345 -6 -370 -27 -433 -13 -38 -27 -68 -32 -68 -6 0 -23 7 -39 15 -30 16 -47
53 -37 80 4 8 3 16 -1 19 -4 2 -6 33 -4 68 5 105 31 459 37 518 3 31 8 93 9
139 4 87 11 101 53 101 16 0 25 -9 33 -36z m1522 -747 c-6 -7 -18 -57 -27
-112 -9 -55 -23 -116 -30 -135 -17 -41 -36 -114 -39 -150 -2 -14 -11 -49 -20
-78 -10 -29 -16 -56 -12 -59 3 -3 -6 -22 -19 -42 -36 -52 -34 -104 6 -149 49
-56 72 -118 71 -190 -2 -74 -5 -82 -38 -82 -14 0 -37 -9 -53 -21 -36 -26 -110
-44 -125 -29 -6 6 -11 25 -12 43 -2 50 -58 159 -103 200 -36 32 -48 37 -90 37
-55 0 -58 -4 -53 -61 3 -30 10 -42 26 -49 11 -4 33 -32 49 -61 24 -48 26 -58
17 -91 -10 -35 -14 -38 -45 -38 -31 0 -86 10 -155 30 -24 7 -25 9 -25 94 0
102 -9 115 -61 84 -19 -11 -32 -24 -29 -29 3 -4 -3 -27 -15 -51 -11 -23 -20
-50 -20 -60 0 -18 -9 -22 -43 -18 -10 1 -25 -4 -32 -10 -11 -9 -23 -9 -44 -2
-16 6 -32 8 -35 5 -3 -3 -13 0 -22 8 -10 8 -40 13 -85 12 l-69 -1 0 52 c0 29
-9 86 -19 127 -12 47 -24 146 -31 273 -12 188 -11 200 6 223 11 14 35 31 54
38 110 40 137 52 160 67 14 10 44 24 68 32 23 8 57 27 76 41 39 29 82 33 90 7
7 -22 91 -72 132 -79 18 -3 46 1 65 10 19 9 50 19 69 22 19 4 40 11 45 15 6 4
27 13 47 19 20 7 53 25 74 42 20 16 44 29 53 29 10 0 26 7 37 15 10 8 28 15
39 15 11 0 32 8 45 18 74 52 154 78 122 39z m-2538 -204 c15 -46 57 -93 81
-93 12 0 26 -5 32 -11 6 -6 44 -19 84 -30 79 -21 201 -24 282 -8 26 5 66 13
90 17 23 5 68 21 100 37 31 15 59 26 62 23 7 -7 -22 -144 -35 -169 -6 -11 -8
-24 -5 -29 3 -5 -3 -30 -14 -55 -11 -25 -18 -45 -15 -45 2 0 -2 -13 -11 -30
-8 -16 -15 -38 -15 -49 0 -11 -11 -28 -24 -36 -31 -21 -58 -144 -36 -170 7 -8
17 -15 22 -15 26 0 77 -34 87 -58 29 -71 28 -212 -2 -212 -6 0 -20 -11 -32
-25 -15 -18 -34 -26 -72 -31 -50 -6 -53 -5 -63 20 -5 15 -10 55 -10 89 -1 98
-60 205 -122 218 -45 10 -49 -3 -48 -191 0 -101 -1 -110 -18 -110 -64 0 -242
25 -243 34 -3 35 4 103 13 125 15 40 11 101 -8 122 -26 29 -82 26 -94 -5 -5
-13 -14 -27 -19 -31 -6 -3 -11 -17 -11 -29 0 -13 -7 -37 -15 -52 -9 -19 -12
-42 -9 -66 8 -49 -9 -56 -69 -29 -25 12 -52 21 -59 21 -7 0 -24 9 -38 20 -14
11 -30 20 -36 20 -6 0 -21 11 -34 25 -20 21 -23 33 -21 94 1 49 -3 80 -15 102
-10 21 -21 86 -30 178 -8 80 -18 182 -23 226 -6 44 -13 117 -16 162 l-5 83
201 -3 202 -2 11 -32z"/>
<path d="M5695 7165 c-34 -6 -83 -22 -110 -35 -63 -30 -135 -103 -135 -136 0
-13 -4 -24 -9 -24 -14 0 -51 -64 -51 -88 0 -11 -7 -33 -15 -48 -31 -60 -12
-235 33 -298 16 -23 31 -46 33 -52 8 -22 127 -114 148 -114 11 0 40 -5 63 -11
50 -13 200 0 286 25 111 32 186 114 233 254 18 55 21 81 17 171 -3 69 -10 116
-20 136 -18 33 -139 156 -184 185 -56 37 -193 54 -289 35z m221 -171 c107 -36
167 -118 168 -231 1 -55 -3 -66 -39 -119 -30 -43 -54 -65 -95 -86 -30 -15 -58
-28 -62 -28 -12 0 -9 28 6 58 8 15 18 71 24 124 13 120 1 165 -64 237 -24 27
-44 52 -44 55 0 11 57 6 106 -10z"/>
<path d="M2950 7100 c-8 -5 -24 -10 -35 -10 -11 0 -45 -25 -75 -56 -30 -30
-74 -74 -97 -98 -24 -23 -43 -49 -43 -58 0 -8 -7 -21 -15 -28 -11 -9 -14 -22
-10 -42 5 -20 2 -30 -9 -34 -27 -10 -14 -99 20 -137 16 -18 32 -36 35 -40 13
-17 61 7 83 42 13 20 39 47 57 60 19 13 45 41 59 63 14 22 70 84 124 138 l100
99 -10 38 c-7 29 -17 42 -44 55 -38 19 -116 23 -140 8z"/>
<path d="M6903 7020 c-39 -3 -79 -12 -88 -20 -10 -8 -32 -13 -50 -11 -41 3
-86 -19 -109 -53 -9 -15 -23 -26 -31 -26 -19 0 -19 -10 2 -40 10 -14 16 -35
15 -47 -2 -16 5 -26 28 -38 25 -13 52 -15 141 -10 61 2 114 7 119 10 4 3 28 7
52 10 97 9 178 67 163 115 -16 51 -107 122 -152 119 -10 -1 -50 -5 -90 -9z"/>
<path d="M3023 6237 c-45 -23 -97 -56 -115 -73 -18 -18 -44 -37 -58 -44 -85
-44 -139 -127 -111 -172 6 -10 11 -24 11 -32 0 -8 11 -17 24 -20 14 -3 28 -15
31 -26 20 -63 121 -44 226 42 39 32 77 58 83 58 6 0 33 23 60 50 46 47 70 65
123 89 29 13 37 48 23 100 -15 55 -47 71 -142 70 -65 -1 -82 -5 -155 -42z"/>
<path d="M3730 5750 c0 -6 -11 -15 -24 -21 -30 -14 -120 -185 -131 -247 -4
-24 -13 -46 -21 -49 -7 -2 -21 -26 -30 -51 -10 -26 -21 -49 -25 -52 -18 -14
-40 -82 -37 -116 3 -36 5 -39 37 -42 49 -5 84 14 138 73 112 124 175 261 175
387 1 89 -17 128 -57 128 -14 0 -25 -5 -25 -10z"/>
<path d="M4553 5583 c-23 -5 -73 -79 -73 -110 -1 -10 -10 -43 -21 -73 -11 -30
-24 -68 -29 -85 -4 -16 -17 -53 -28 -81 -29 -76 -34 -119 -21 -164 10 -34 16
-40 39 -40 15 0 39 9 54 21 67 53 184 278 196 379 5 38 3 66 -7 90 -26 65 -45
76 -110 63z"/>
<path d="M5312 5517 c-12 -13 -19 -26 -16 -30 3 -3 0 -37 -7 -74 -7 -37 -14
-111 -16 -163 -6 -123 -6 -121 -1 -218 3 -75 6 -86 28 -103 14 -10 31 -19 37
-19 7 0 33 28 58 63 l46 62 -5 120 c-10 246 -23 309 -70 363 -24 27 -27 27
-54 -1z"/>
<path d="M6070 5521 c-5 -11 -19 -23 -31 -26 -20 -7 -21 -13 -17 -93 3 -75 8
-93 31 -127 53 -78 71 -97 113 -116 39 -19 45 -19 72 -5 62 32 59 119 -8 230
-34 55 -124 156 -140 156 -5 0 -14 -9 -20 -19z"/>
</g>
</svg>
